<?xml version="1.0" encoding="UTF-8" standalone="no"?>
<svg
   viewBox="0 0 256 256"
   version="1.1"
   id="svg1402"
   sodipodi:docname="usermod.svg"
   inkscape:version="1.2.1 (9c6d41e410, 2022-07-14)"
   xmlns:inkscape="http://www.inkscape.org/namespaces/inkscape"
   xmlns:sodipodi="http://sodipodi.sourceforge.net/DTD/sodipodi-0.dtd"
   xmlns:xlink="http://www.w3.org/1999/xlink"
   xmlns="http://www.w3.org/2000/svg"
   xmlns:svg="http://www.w3.org/2000/svg"
   xmlns:rdf="http://www.w3.org/1999/02/22-rdf-syntax-ns#"
   xmlns:cc="http://creativecommons.org/ns#"
   xmlns:dc="http://purl.org/dc/elements/1.1/">
  <sodipodi:namedview
     id="namedview1404"
     pagecolor="#ffffff"
     bordercolor="#000000"
     borderopacity="0.25"
     inkscape:showpageshadow="2"
     inkscape:pageopacity="0.0"
     inkscape:pagecheckerboard="0"
     inkscape:deskcolor="#d1d1d1"
     showgrid="false"
     inkscape:zoom="2.0507812"
     inkscape:cx="76.8"
     inkscape:cy="128.24381"
     inkscape:window-width="1366"
     inkscape:window-height="705"
     inkscape:window-x="-8"
     inkscape:window-y="-8"
     inkscape:window-maximized="1"
     inkscape:current-layer="svg1402" />
  <defs
     id="defs1249">
    <style
       id="style1247">.cls-1{fill:#ffd659;}.cls-2{fill:#2fb1ea;}.cls-3{fill:#6dd0fc;}.cls-4{fill:#a4ecff;}.cls-5{fill:#f88;}.cls-6{fill:#f97171;}.cls-7{fill:#fff;}.cls-8{fill:#ffc444;}.cls-9{fill:#ffe76e;}.cls-10{fill:#d4ffd4;}.cls-11{fill:#ffbdbd;}.cls-12{fill:#bbf1ff;}.cls-13{fill:#fff4c5;}</style>
  </defs>
  <title
     id="title1251">business economic finance interprise company team work</title>
  <g
     id="Layer_2"
     data-name="Layer 2">
    <polygon
       class="cls-1"
       points="153.09 138.46 153.09 146.86 127.94 151.19 102.79 146.86 102.79 138.46 112.97 125.27 142.91 125.27 153.09 138.46"
       id="polygon1325" />
    <path
       class="cls-2"
       d="M127.94,153.19l-.34,0-25.15-4.33a2,2,0,0,1-1.66-2v-8.4a2,2,0,0,1,.42-1.22L111.39,124a2,2,0,0,1,1.58-.78h29.94a2,2,0,0,1,1.58.78l10.18,13.19a2,2,0,0,1,.42,1.22v8.4a2,2,0,0,1-1.66,2l-25.15,4.33Zm-23.15-8,23.15,4,23.15-4v-6l-9.16-11.87H114l-9.16,11.87Z"
       id="path1327" />
    <path
       class="cls-3"
       d="M168.82,147.62V186.8a25.2,25.2,0,0,1-25.2,25.2H112.26a25.2,25.2,0,0,1-25.2-25.2V147.62a10.08,10.08,0,0,1,6.44-9.4l5.22-2,29.23,15,29.23-15,5.22,2A10.08,10.08,0,0,1,168.82,147.62Z"
       id="path1329" />
    <path
       class="cls-4"
       d="M168.82,147.62v29.24a25.2,25.2,0,0,1-25.2,25.2H112.26a25.2,25.2,0,0,1-25.2-25.2V147.62a10.08,10.08,0,0,1,6.44-9.4l5.22-2,29.23,15,29.23-15,5.22,2A10.08,10.08,0,0,1,168.82,147.62Z"
       id="path1331" />
    <path
       class="cls-3"
       d="M110.88,167.68a9.92,9.92,0,0,0,5.82-.52l.7.69a15.07,15.07,0,0,0,21.06,0l.7-.69a10,10,0,0,0,3.75.74,10.13,10.13,0,0,0,2.1-.22,10,10,0,0,0,6.72-5l12.57-23.41a10.07,10.07,0,0,0-1.91-1l-5.22-2-29.23,15-29.23-15-5.22,2a10.07,10.07,0,0,0-1.91,1l12.57,23.42A10,10,0,0,0,110.88,167.68Z"
       id="path1333" />
    <path
       class="cls-2"
       d="M143.62,214H112.26a27.23,27.23,0,0,1-27.2-27.2V147.62a12.16,12.16,0,0,1,7.71-11.26l5.22-2a2,2,0,0,1,1.64.09l28.31,14.53,28.31-14.53a2,2,0,0,1,1.64-.09l5.22,2a12.16,12.16,0,0,1,7.71,11.26V186.8A27.23,27.23,0,0,1,143.62,214Zm-45-75.61-4.39,1.7a8.13,8.13,0,0,0-5.16,7.53V186.8a23.23,23.23,0,0,0,23.2,23.2h31.37a23.23,23.23,0,0,0,23.2-23.2V147.62a8.13,8.13,0,0,0-5.16-7.53l-4.39-1.7L128.85,153a2,2,0,0,1-1.83,0Z"
       id="path1335" />
    <path
       class="cls-5"
       d="M137,198.43l-5,6.9a5,5,0,0,1-8.17,0l-5-6.9a10.08,10.08,0,0,1-1.79-7.44l4.56-29.44h12.6L138.8,191A10.08,10.08,0,0,1,137,198.43Z"
       id="path1337" />
    <path
       class="cls-6"
       d="M122.81,161.55l-1.63,10.52a12.29,12.29,0,0,0,13.51,0l-1.63-10.52Z"
       id="path1339" />
    <path
       class="cls-2"
       d="M127.94,209.43a7,7,0,0,1-5.71-2.92l-5-6.9a12,12,0,0,1-2.14-8.92l4.56-29.44a2,2,0,0,1,2-1.69h12.6a2,2,0,0,1,2,1.69l4.56,29.44a12,12,0,0,1-2.14,8.92l-5,6.9A7,7,0,0,1,127.94,209.43Zm-4.59-45.87-4.29,27.74a8,8,0,0,0,1.43,6l5,6.9a3,3,0,0,0,4.93,0l5-6.9h0a8,8,0,0,0,1.43-6l-4.29-27.75Z"
       id="path1341" />
    <path
       class="cls-5"
       d="M141.52,155.68l-10.05,9.86a5,5,0,0,1-7.06,0l-10.05-9.86,13.58-5.49Z"
       id="path1343" />
    <path
       class="cls-2"
       d="M127.94,169a7,7,0,0,1-4.93-2L113,157.11a2,2,0,0,1,.65-3.28l13.58-5.49a2,2,0,0,1,1.5,0l13.58,5.49a2,2,0,0,1,.65,3.28L132.87,167A7,7,0,0,1,127.94,169Zm-10-12.58,7.87,7.72a3.05,3.05,0,0,0,4.26,0l7.87-7.72-10-4Z"
       id="path1345" />
    <polygon
       class="cls-7"
       points="109.12 127.59 98.72 136.2 112.96 162.73 127.94 151.19 109.12 127.59"
       id="polygon1347" />
    <path
       class="cls-2"
       d="M113,164.73a2,2,0,0,1-.42,0,2,2,0,0,1-1.34-1L97,137.15a2,2,0,0,1,.49-2.49l10.4-8.6a2,2,0,0,1,2.84.29l18.82,23.6a2,2,0,0,1-.34,2.83l-15,11.54A2,2,0,0,1,113,164.73Zm-11.7-28,12.35,23,11.5-8.86-16.28-20.42Z"
       id="path1349" />
    <polygon
       class="cls-7"
       points="146.76 127.59 157.16 136.2 142.92 162.73 127.94 151.19 146.76 127.59"
       id="polygon1351" />
    <path
       class="cls-2"
       d="M142.92,164.73a2,2,0,0,1-1.22-.42l-15-11.54a2,2,0,0,1-.34-2.83l18.82-23.6a2,2,0,0,1,2.84-.29l10.4,8.6a2,2,0,0,1,.49,2.49l-14.24,26.53a2,2,0,0,1-1.34,1A2,2,0,0,1,142.92,164.73Zm-12.15-13.88,11.5,8.86,12.35-23-7.57-6.26Z"
       id="path1353" />
    <rect
       class="cls-8"
       x="107.78"
       y="82.52"
       width="40.32"
       height="50.4"
       rx="20.16"
       ry="20.16"
       id="rect1355" />
    <rect
       class="cls-9"
       x="107.78"
       y="82.52"
       width="40.32"
       height="43.4"
       rx="20.16"
       ry="20.16"
       id="rect1357" />
    <path
       class="cls-2"
       d="M127.94,134.92a22.19,22.19,0,0,1-22.16-22.16V102.68a22.16,22.16,0,0,1,44.32,0v10.08A22.19,22.19,0,0,1,127.94,134.92Zm0-50.4a18.18,18.18,0,0,0-18.16,18.16v10.08a18.16,18.16,0,1,0,36.32,0V102.68A18.18,18.18,0,0,0,127.94,84.52Z"
       id="path1359" />
    <circle
       class="cls-10"
       cx="7"
       cy="119.5"
       r="5"
       id="circle1361" />
    <circle
       class="cls-10"
       cx="78"
       cy="225.5"
       r="4"
       id="circle1363" />
    <circle
       class="cls-10"
       cx="213"
       cy="184.5"
       r="3"
       id="circle1365" />
    <circle
       class="cls-10"
       cx="184"
       cy="31.5"
       r="2"
       id="circle1367" />
    <circle
       class="cls-10"
       cx="240"
       cy="46.5"
       r="1"
       id="circle1369" />
    <circle
       class="cls-11"
       cx="230"
       cy="81.5"
       r="5"
       id="circle1371" />
    <circle
       class="cls-11"
       cx="106"
       cy="60.5"
       r="4"
       id="circle1373" />
    <circle
       class="cls-11"
       cx="16"
       cy="145.5"
       r="3"
       id="circle1375" />
    <circle
       class="cls-11"
       cx="28"
       cy="58.5"
       r="2"
       id="circle1377" />
    <circle
       class="cls-11"
       cx="79"
       cy="27.5"
       r="1"
       id="circle1379" />
    <circle
       class="cls-12"
       cx="52"
       cy="192.5"
       r="5"
       id="circle1381" />
    <circle
       class="cls-12"
       cx="205"
       cy="31.5"
       r="4"
       id="circle1383" />
    <circle
       class="cls-12"
       cx="142"
       cy="56.5"
       r="3"
       id="circle1385" />
    <circle
       class="cls-12"
       cx="213"
       cy="211.5"
       r="2"
       id="circle1387" />
    <circle
       class="cls-12"
       cx="209"
       cy="226.5"
       r="1"
       id="circle1389" />
    <circle
       class="cls-13"
       cx="14"
       cy="187.5"
       r="5"
       id="circle1391" />
    <circle
       class="cls-13"
       cx="250"
       cy="130.5"
       r="4"
       id="circle1393" />
    <circle
       class="cls-13"
       cx="177"
       cy="205.5"
       r="3"
       id="circle1395" />
    <circle
       class="cls-13"
       cx="123"
       cy="33.5"
       r="2"
       id="circle1397" />
    <circle
       class="cls-13"
       cx="157"
       cy="35.5"
       r="1"
       id="circle1399" />
  </g>
  <use
     x="0"
     y="0"
     xlink:href="#Layer_2"
     id="use1406" />
  <metadata
     id="metadata1415">
    <rdf:RDF>
      <cc:Work
         rdf:about="">
        <dc:title>business economic finance interprise company team work</dc:title>
      </cc:Work>
    </rdf:RDF>
  </metadata>
</svg>
